<svg version="1.0" xmlns="http://www.w3.org/2000/svg" width="32.000000pt" height="32.000000pt" viewBox="0 0 32 32" preserveAspectRatio="xMidYMid meet"><g transform="translate(0.000000,32.000000) scale(0.100000,-0.100000)">

  <style type="text/css"><![CDATA[
  path
  {
    fill: #03dac6;
  }
  ]]></style>
  <path d="M12 308c-16 -16 -16 -110 0 -126 16 -16 110 -16 126 0 16 16 16 110 0 126 -16 16 -110 16 -126 0z"/><path d="M182 308c-16 -16 -16 -110 0 -126 16 -16 110 -16 126 0 16 16 16 110 0 126 -16 16 -110 16 -126 0z"/><path d="M12 138c-16 -16 -16 -110 0 -126 16 -16 110 -16 126 0 16 16 16 110 0 126 -16 16 -110 16 -126 0z"/><path d="M182 138c-16 -16 -16 -110 0 -126 16 -16 110 -16 126 0 16 16 16 110 0 126 -16 16 -110 16 -126 0z"/></g></svg>
