<svg width="128px" height="128px" fill="#03dac6" viewBox="0 0 128 128" xmlns="http://www.w3.org/2000/svg"><path d="M53.758 17.762L31.515 40H6c-3.315 0 -6 2.685 -6 6v36c0 3.313 2.685 6 6 6h25.515l22.242 22.238c3.757 3.757 10.242 1.117 10.242 -4.242V22.005c0 -5.365 -6.49 -7.995 -10.242 -4.242zM115.41 64l11.41 -11.41c1.575 -1.575 1.575 -4.13 0 -5.705l-5.705 -5.705c-1.575 -1.575 -4.13 -1.575 -5.705 0L104 52.59l-11.41 -11.41c-1.575 -1.575 -4.13 -1.575 -5.705 0l-5.705 5.705c-1.575 1.575 -1.575 4.13 0 5.705L92.59 64l-11.408 11.408c-1.575 1.575 -1.575 4.13 0 5.705l5.705 5.705c1.575 1.575 4.13 1.575 5.705 0L104 75.41l11.41 11.41c1.575 1.575 4.13 1.575 5.705 0l5.705 -5.705c1.575 -1.575 1.575 -4.13 0 -5.705L115.41 64z"/></svg>