<svg width="128px" fill="#03dac6" height="128px" viewBox="0 -7.111 128 128" xmlns="http://www.w3.org/2000/svg"><path d="M47.784 15.789L28.013 35.556H5.333c-2.947 0 -5.333 2.387 -5.333 5.333v32c0 2.944 2.387 5.333 5.333 5.333h22.68l19.771 19.767c3.34 3.34 9.104 0.993 9.104 -3.771V19.56c0 -4.769 -5.769 -7.107 -9.104 -3.771zm51.849 -11.351c-2.482 -1.629 -5.818 -0.942 -7.447 1.544 -1.631 2.482 -0.938 5.818 1.544 7.447 14.727 9.664 23.516 25.911 23.516 43.462 0 17.551 -8.789 33.798 -23.516 43.462 -2.482 1.627 -3.176 4.964 -1.544 7.444 1.564 2.38 4.873 3.236 7.447 1.544C117.393 97.684 128 78.073 128 56.889S117.393 16.096 99.633 4.438zM106.667 56.889c0 -14.118 -7.124 -27.098 -19.06 -34.72 -2.487 -1.587 -5.784 -0.849 -7.36 1.658s-0.84 5.824 1.647 7.413C90.727 36.882 96 46.469 96 56.889s-5.273 20.007 -14.107 25.649c-2.487 1.587 -3.222 4.904 -1.647 7.413 1.447 2.302 4.693 3.364 7.36 1.658C99.542 83.987 106.667 71.009 106.667 56.889zm-31.504 -17.082c-2.573 -1.407 -5.82 -0.48 -7.247 2.1 -1.42 2.58 -0.48 5.822 2.1 7.247C72.884 50.729 74.667 53.696 74.667 56.889c0 3.196 -1.782 6.16 -4.649 7.736 -2.58 1.424 -3.52 4.667 -2.1 7.247 1.429 2.591 4.678 3.511 7.247 2.1 6.273 -3.456 10.171 -10 10.171 -17.084s-3.898 -13.627 -10.173 -17.08z"/></svg>